<svg width="300" height="380" viewBox="0 0 300 380" fill="none" xmlns="http://www.w3.org/2000/svg">
<rect width="300" height="380" fill="#F5F5F5"/>
<!-- Header -->
<circle cx="75" cy="50" r="25" fill="#6B7280"/>
<text x="60" y="57" font-family="Arial" font-size="18" font-weight="bold" fill="white">K</text>
<text x="110" y="45" font-family="Arial" font-size="20" font-weight="bold" fill="#333">Kanish Krishna J P</text>

<!-- QR Code Pattern (Simplified representation) -->
<rect x="50" y="90" width="200" height="200" fill="black"/>
<rect x="60" y="100" width="180" height="180" fill="white"/>

<!-- Corner squares -->
<rect x="70" y="110" width="30" height="30" fill="black"/>
<rect x="75" y="115" width="20" height="20" fill="white"/>
<rect x="80" y="120" width="10" height="10" fill="black"/>

<rect x="180" y="110" width="30" height="30" fill="black"/>
<rect x="185" y="115" width="20" height="20" fill="white"/>
<rect x="190" y="120" width="10" height="10" fill="black"/>

<rect x="70" y="240" width="30" height="30" fill="black"/>
<rect x="75" y="245" width="20" height="20" fill="white"/>
<rect x="80" y="250" width="10" height="10" fill="black"/>

<!-- Data pattern -->
<rect x="110" y="130" width="5" height="5" fill="black"/>
<rect x="120" y="130" width="5" height="5" fill="black"/>
<rect x="130" y="130" width="5" height="5" fill="black"/>
<rect x="140" y="130" width="5" height="5" fill="black"/>
<rect x="150" y="130" width="5" height="5" fill="black"/>
<rect x="160" y="130" width="5" height="5" fill="black"/>
<rect x="170" y="130" width="5" height="5" fill="black"/>

<rect x="115" y="140" width="5" height="5" fill="black"/>
<rect x="125" y="140" width="5" height="5" fill="black"/>
<rect x="135" y="140" width="5" height="5" fill="black"/>
<rect x="145" y="140" width="5" height="5" fill="black"/>
<rect x="155" y="140" width="5" height="5" fill="black"/>
<rect x="165" y="140" width="5" height="5" fill="black"/>

<rect x="110" y="150" width="5" height="5" fill="black"/>
<rect x="130" y="150" width="5" height="5" fill="black"/>
<rect x="150" y="150" width="5" height="5" fill="black"/>
<rect x="170" y="150" width="5" height="5" fill="black"/>

<rect x="120" y="160" width="5" height="5" fill="black"/>
<rect x="140" y="160" width="5" height="5" fill="black"/>
<rect x="160" y="160" width="5" height="5" fill="black"/>

<rect x="110" y="170" width="5" height="5" fill="black"/>
<rect x="125" y="170" width="5" height="5" fill="black"/>
<rect x="140" y="170" width="5" height="5" fill="black"/>
<rect x="155" y="170" width="5" height="5" fill="black"/>
<rect x="170" y="170" width="5" height="5" fill="black"/>

<rect x="115" y="180" width="5" height="5" fill="black"/>
<rect x="135" y="180" width="5" height="5" fill="black"/>
<rect x="155" y="180" width="5" height="5" fill="black"/>

<rect x="110" y="190" width="5" height="5" fill="black"/>
<rect x="130" y="190" width="5" height="5" fill="black"/>
<rect x="150" y="190" width="5" height="5" fill="black"/>
<rect x="170" y="190" width="5" height="5" fill="black"/>

<rect x="120" y="200" width="5" height="5" fill="black"/>
<rect x="140" y="200" width="5" height="5" fill="black"/>
<rect x="160" y="200" width="5" height="5" fill="black"/>

<rect x="115" y="210" width="5" height="5" fill="black"/>
<rect x="135" y="210" width="5" height="5" fill="black"/>
<rect x="155" y="210" width="5" height="5" fill="black"/>

<rect x="110" y="220" width="5" height="5" fill="black"/>
<rect x="125" y="220" width="5" height="5" fill="black"/>
<rect x="140" y="220" width="5" height="5" fill="black"/>
<rect x="155" y="220" width="5" height="5" fill="black"/>
<rect x="170" y="220" width="5" height="5" fill="black"/>

<!-- Google Pay Logo in center -->
<circle cx="150" cy="200" r="15" fill="#4FB400"/>
<path d="M145 195 L150 200 L155 195" stroke="white" stroke-width="2" fill="none"/>

<!-- UPI ID -->
<text x="150" y="315" font-family="Arial" font-size="14" font-weight="bold" fill="#333" text-anchor="middle">UPI ID: kanishnithya06@okaxis</text>

<!-- Instruction -->
<text x="150" y="340" font-family="Arial" font-size="12" fill="#666" text-anchor="middle">Scan to pay with any UPI app</text>

<!-- Amount (will be dynamic) -->
<text x="150" y="360" font-family="Arial" font-size="16" font-weight="bold" fill="#4FB400" text-anchor="middle">Amount: ₹{amount}</text>
</svg>
